# Blender 5.0.0
# www.blender.org
mtllib PalmeraCorregida.mtl
o Palmeira
v 0.002602 0.021433 -0.096264
v 0.002602 0.021433 -0.096264
v 0.002602 0.021433 -0.096264
v -0.007279 0.320773 -0.110405
v -0.007279 0.320773 -0.110405
v -0.007279 0.320773 -0.110405
v 0.068811 0.027089 -0.066656
v 0.068811 0.027089 -0.066656
v 0.068811 0.027089 -0.066656
v 0.081537 0.320993 -0.082068
v 0.081537 0.320993 -0.082068
v 0.081537 0.320993 -0.082068
v 0.100000 0.020000 0.000000
v 0.100000 0.020000 0.000000
v 0.100000 0.020000 0.000000
v 0.112586 0.320220 -0.001503
v 0.112586 0.320220 -0.001503
v 0.112586 0.320220 -0.001503
v 0.070711 0.020000 0.070711
v 0.070711 0.020000 0.070711
v 0.070711 0.020000 0.070711
v 0.095006 0.319780 0.075882
v 0.095006 0.319780 0.075882
v 0.095006 0.319780 0.075882
v 0.000000 0.020000 0.100000
v 0.000000 0.020000 0.100000
v 0.000000 0.020000 0.100000
v 0.014317 0.319452 0.108294
v 0.014317 0.319452 0.108294
v 0.014317 0.319452 0.108294
v -0.070711 0.020000 0.070711
v -0.070711 0.020000 0.070711
v -0.070711 0.020000 0.070711
v -0.088301 0.319012 0.081328
v -0.088301 0.319012 0.081328
v -0.088301 0.319012 0.081328
v -0.100458 0.023012 0.011860
v -0.100458 0.023012 0.011860
v -0.100458 0.023012 0.011860
v -0.110930 0.318900 0.012687
v -0.110930 0.318900 0.012687
v -0.110930 0.318900 0.012687
v -0.080558 0.026899 -0.060663
v -0.080558 0.026899 -0.060663
v -0.080558 0.026899 -0.060663
v -0.089764 0.320110 -0.073990
v -0.089764 0.320110 -0.073990
v -0.089764 0.320110 -0.073990
v 0.000000 0.317379 -0.098715
v 0.000000 0.317379 -0.098715
v 0.000000 0.317379 -0.098715
v -0.017248 0.528723 -0.104812
v -0.017248 0.528723 -0.104812
v -0.017248 0.528723 -0.104812
v 0.070711 0.317379 -0.069426
v 0.070711 0.317379 -0.069426
v 0.070711 0.317379 -0.069426
v 0.079862 0.536177 -0.072626
v 0.079862 0.536177 -0.072626
v 0.079862 0.536177 -0.072626
v 0.100000 0.317379 0.001285
v 0.100000 0.317379 0.001285
v 0.100000 0.317379 0.001285
v 0.106616 0.540024 0.013732
v 0.106616 0.540024 0.013732
v 0.106616 0.540024 0.013732
v 0.070711 0.317379 0.071996
v 0.070711 0.317379 0.071996
v 0.070711 0.317379 0.071996
v 0.082975 0.532421 0.078350
v 0.082975 0.532421 0.078350
v 0.082975 0.532421 0.078350
v 0.000000 0.317379 0.101285
v 0.000000 0.317379 0.101285
v 0.000000 0.317379 0.101285
v -0.021475 0.533390 0.116504
v -0.021475 0.533390 0.116504
v -0.021475 0.533390 0.116504
v -0.070711 0.317379 0.071996
v -0.070711 0.317379 0.071996
v -0.070711 0.317379 0.071996
v -0.097893 0.532129 0.078760
v -0.097893 0.532129 0.078760
v -0.097893 0.532129 0.078760
v -0.100000 0.317379 0.001285
v -0.100000 0.317379 0.001285
v -0.100000 0.317379 0.001285
v -0.123047 0.538289 -0.003395
v -0.123047 0.538289 -0.003395
v -0.123047 0.538289 -0.003395
v -0.070711 0.317379 -0.069426
v -0.070711 0.317379 -0.069426
v -0.070711 0.317379 -0.069426
v -0.084524 0.541008 -0.072277
v -0.084524 0.541008 -0.072277
v -0.084524 0.541008 -0.072277
v 0.000000 0.530043 -0.098715
v 0.000000 0.530043 -0.098715
v 0.000000 0.530043 -0.098715
v -0.007338 0.756861 -0.116075
v -0.007338 0.756861 -0.116075
v -0.007338 0.756861 -0.116075
v 0.070711 0.530043 -0.069426
v 0.070711 0.530043 -0.069426
v 0.070711 0.530043 -0.069426
v 0.078799 0.754932 -0.083325
v 0.078799 0.754932 -0.083325
v 0.078799 0.754932 -0.083325
v 0.100000 0.530043 0.001285
v 0.100000 0.530043 0.001285
v 0.100000 0.530043 0.001285
v 0.115569 0.759855 0.003171
v 0.115569 0.759855 0.003171
v 0.115569 0.759855 0.003171
v 0.070711 0.530043 0.071996
v 0.070711 0.530043 0.071996
v 0.070711 0.530043 0.071996
v 0.090418 0.761385 0.070695
v 0.090418 0.761385 0.070695
v 0.090418 0.761385 0.070695
v 0.000000 0.530043 0.101285
v 0.000000 0.530043 0.101285
v 0.000000 0.530043 0.101285
v -0.001207 0.754968 0.116713
v -0.001207 0.754968 0.116713
v -0.001207 0.754968 0.116713
v -0.070711 0.530043 0.071996
v -0.070711 0.530043 0.071996
v -0.070711 0.530043 0.071996
v -0.093649 0.759506 0.085305
v -0.093649 0.759506 0.085305
v -0.093649 0.759506 0.085305
v -0.100000 0.530043 0.001285
v -0.100000 0.530043 0.001285
v -0.100000 0.530043 0.001285
v -0.125450 0.755644 -0.006708
v -0.125450 0.755644 -0.006708
v -0.125450 0.755644 -0.006708
v -0.070711 0.530043 -0.069426
v -0.070711 0.530043 -0.069426
v -0.070711 0.530043 -0.069426
v -0.076870 0.767431 -0.091970
v -0.076870 0.767431 -0.091970
v -0.076870 0.767431 -0.091970
v 0.001413 0.753044 -0.089342
v 0.001413 0.753044 -0.089342
v 0.001413 0.753044 -0.089342
v -0.007586 0.972585 -0.117456
v -0.007586 0.972585 -0.117456
v -0.007586 0.972585 -0.117456
v 0.070711 0.749708 -0.069426
v 0.070711 0.749708 -0.069426
v 0.070711 0.749708 -0.069426
v 0.073247 0.979566 -0.078243
v 0.073247 0.979566 -0.078243
v 0.073247 0.979566 -0.078243
v 0.092489 0.753033 0.000151
v 0.092489 0.753033 0.000151
v 0.092489 0.753033 0.000151
v 0.102424 0.978892 -0.008651
v 0.102424 0.978892 -0.008651
v 0.102424 0.978892 -0.008651
v 0.070711 0.749708 0.071996
v 0.070711 0.749708 0.071996
v 0.070711 0.749708 0.071996
v 0.070711 0.984505 0.071996
v 0.070711 0.984505 0.071996
v 0.070711 0.984505 0.071996
v 0.000000 0.749708 0.101285
v 0.000000 0.749708 0.101285
v 0.000000 0.749708 0.101285
v 0.000000 0.984505 0.101285
v 0.000000 0.984505 0.101285
v 0.000000 0.984505 0.101285
v -0.070711 0.749708 0.071996
v -0.070711 0.749708 0.071996
v -0.070711 0.749708 0.071996
v -0.070711 0.984505 0.071996
v -0.070711 0.984505 0.071996
v -0.070711 0.984505 0.071996
v -0.100000 0.749708 0.001285
v -0.100000 0.749708 0.001285
v -0.100000 0.749708 0.001285
v -0.100000 0.984505 0.001285
v -0.100000 0.984505 0.001285
v -0.100000 0.984505 0.001285
v -0.070711 0.749708 -0.069426
v -0.070711 0.749708 -0.069426
v -0.070711 0.749708 -0.069426
v -0.074193 0.979605 -0.077063
v -0.074193 0.979605 -0.077063
v -0.074193 0.979605 -0.077063
v 0.012277 0.944321 0.003557
v 0.001848 0.951235 0.055664
v 0.351185 0.852899 0.396753
v 0.410504 0.886605 0.263277
v 0.034344 0.973562 0.104207
v 0.034344 0.973562 0.104207
v 0.051705 0.973562 0.157163
v 0.051705 0.973562 0.157163
v 0.101438 0.958324 0.187616
v 0.101438 0.958324 0.187616
v 0.133911 0.973562 0.192726
v 0.133911 0.973562 0.192726
v 0.157338 0.973562 0.214682
v 0.157338 0.973562 0.214682
v 0.176397 0.952809 0.230375
v 0.176397 0.952809 0.230375
v 0.253479 0.896087 0.334479
v 0.253479 0.896087 0.334479
v 0.342154 0.928072 0.190599
v 0.342154 0.928072 0.190599
v 0.279973 0.969983 0.120396
v 0.279973 0.969983 0.120396
v 0.242866 0.973562 0.104755
v 0.242866 0.973562 0.104755
v 0.220733 0.981944 0.060747
v 0.220733 0.981944 0.060747
v 0.183762 0.973562 0.030446
v 0.183762 0.973562 0.030446
v 0.135603 0.973562 0.011465
v 0.135603 0.973562 0.011465
v 0.103073 0.973562 0.000886
v 0.103073 0.973562 0.000886
v -0.000152 0.947672 0.025444
v -0.000152 0.947672 0.025444
v 0.431732 0.846110 0.375308
v 0.431732 0.846110 0.375308
v 0.065639 0.973562 0.057161
v 0.065639 0.973562 0.057161
v 0.065639 0.973562 0.057161
v 0.065639 0.973562 0.057161
v 0.095629 0.995783 0.093586
v 0.095629 0.995783 0.093586
v 0.095629 0.995783 0.093586
v 0.095629 0.995783 0.093586
v 0.134536 0.999245 0.108319
v 0.134536 0.999245 0.108319
v 0.134536 0.999245 0.108319
v 0.134536 0.999245 0.108319
v 0.177608 0.988506 0.134801
v 0.177608 0.988506 0.134801
v 0.177608 0.988506 0.134801
v 0.177608 0.988506 0.134801
v 0.198602 0.975664 0.160967
v 0.198602 0.975664 0.160967
v 0.198602 0.975664 0.160967
v 0.198602 0.975664 0.160967
v 0.220234 0.975968 0.189597
v 0.220234 0.975968 0.189597
v 0.220234 0.975968 0.189597
v 0.220234 0.975968 0.189597
v 0.312370 0.938112 0.276011
v 0.312370 0.938112 0.276011
v 0.312370 0.938112 0.276011
v 0.312370 0.938112 0.276011
v -0.016260 0.924612 0.590698
v 0.031094 0.927867 0.566029
v 0.060539 0.950072 0.071895
v -0.072991 1.001878 0.120691
v 0.051547 0.960149 0.515042
v 0.051547 0.960149 0.515042
v 0.081289 0.965999 0.468178
v 0.081289 0.965999 0.468178
v 0.071449 0.967943 0.409275
v 0.071449 0.967943 0.409275
v 0.057619 0.993348 0.384994
v 0.057619 0.993348 0.384994
v 0.059910 1.001161 0.353668
v 0.059910 1.001161 0.353668
v 0.056911 0.987608 0.325744
v 0.056911 0.987608 0.325744
v 0.080049 0.958959 0.191644
v 0.080049 0.958959 0.191644
v -0.079862 1.018842 0.225312
v -0.079862 1.018842 0.225312
v -0.088589 1.038287 0.323897
v -0.088589 1.038287 0.323897
v -0.077038 1.029375 0.361841
v -0.077038 1.029375 0.361841
v -0.095693 1.029996 0.407985
v -0.095693 1.029996 0.407985
v -0.097279 1.009633 0.453070
v -0.097279 1.009633 0.453070
v -0.081995 0.993614 0.500607
v -0.081995 0.993614 0.500607
v -0.069957 0.982798 0.531272
v -0.069957 0.982798 0.531272
v 0.008679 0.923735 0.586319
v 0.008679 0.923735 0.586319
v -0.006733 0.970265 0.025422
v -0.006733 0.970265 0.025422
v -0.003779 0.970462 0.522432
v -0.003779 0.970462 0.522432
v -0.003779 0.970462 0.522432
v -0.003779 0.970462 0.522432
v 0.008945 1.001792 0.481075
v 0.008945 1.001792 0.481075
v 0.008945 1.001792 0.481075
v 0.008945 1.001792 0.481075
v -0.003328 1.018053 0.443698
v -0.003328 1.018053 0.443698
v -0.003328 1.018053 0.443698
v -0.003328 1.018053 0.443698
v -0.011388 1.022094 0.393069
v -0.011388 1.022094 0.393069
v -0.011388 1.022094 0.393069
v -0.011388 1.022094 0.393069
v -0.006357 1.016788 0.358437
v -0.006357 1.016788 0.358437
v -0.006357 1.016788 0.358437
v -0.006357 1.016788 0.358437
v 0.002195 1.024308 0.324181
v 0.002195 1.024308 0.324181
v 0.002195 1.024308 0.324181
v 0.002195 1.024308 0.324181
v 0.005409 1.018724 0.193937
v 0.005409 1.018724 0.193937
v 0.005409 1.018724 0.193937
v 0.005409 1.018724 0.193937
v 0.024741 0.969911 0.005283
v 0.021189 0.979463 -0.047441
v -0.413969 0.940812 -0.281850
v -0.431787 0.970732 -0.136276
v -0.021210 1.008369 -0.084458
v -0.021210 1.008369 -0.084458
v -0.052181 1.013875 -0.130549
v -0.052181 1.013875 -0.130549
v -0.109330 1.005850 -0.146564
v -0.109330 1.005850 -0.146564
v -0.140534 1.024607 -0.142074
v -0.140534 1.024607 -0.142074
v -0.168915 1.028508 -0.156714
v -0.168915 1.028508 -0.156714
v -0.193155 1.010888 -0.167162
v -0.193155 1.010888 -0.167162
v -0.299920 0.969583 -0.247642
v -0.299920 0.969583 -0.247642
v -0.343174 0.999975 -0.084039
v -0.343174 0.999975 -0.084039
v -0.261101 1.030453 -0.032467
v -0.261101 1.030453 -0.032467
v -0.221032 1.029197 -0.027553
v -0.221032 1.029197 -0.027553
v -0.187214 1.032189 0.008880
v -0.187214 1.032189 0.008880
v -0.144304 1.018006 0.027556
v -0.144304 1.018006 0.027556
v -0.093046 1.011852 0.032527
v -0.093046 1.011852 0.032527
v -0.059030 1.007854 0.033730
v -0.059030 1.007854 0.033730
v 0.030994 0.973565 -0.019067
v 0.030994 0.973565 -0.019067
v -0.485857 0.940562 -0.239268
v -0.485857 0.940562 -0.239268
v -0.038431 1.008134 -0.030642
v -0.038431 1.008134 -0.030642
v -0.038431 1.008134 -0.030642
v -0.038431 1.008134 -0.030642
v -0.075156 1.035821 -0.056710
v -0.075156 1.035821 -0.056710
v -0.075156 1.035821 -0.056710
v -0.075156 1.035821 -0.056710
v -0.116114 1.044194 -0.060044
v -0.116114 1.044194 -0.060044
v -0.116114 1.044194 -0.060044
v -0.116114 1.044194 -0.060044
v -0.165432 1.039696 -0.073944
v -0.165432 1.039696 -0.073944
v -0.165432 1.039696 -0.073944
v -0.165432 1.039696 -0.073944
v -0.193700 1.030882 -0.093683
v -0.193700 1.030882 -0.093683
v -0.193700 1.030882 -0.093683
v -0.193700 1.030882 -0.093683
v -0.222145 1.035383 -0.115221
v -0.222145 1.035383 -0.115221
v -0.222145 1.035383 -0.115221
v -0.222145 1.035383 -0.115221
v -0.336953 1.013080 -0.173995
v -0.336953 1.013080 -0.173995
v -0.336953 1.013080 -0.173995
v -0.336953 1.013080 -0.173995
v -0.025286 0.965395 0.012660
v 0.018527 0.971531 0.042854
v 0.468858 0.867843 -0.143682
v 0.370036 0.903517 -0.250778
v 0.076185 0.993104 0.032268
v 0.076185 0.993104 0.032268
v 0.131687 0.992296 0.037241
v 0.131687 0.992296 0.037241
v 0.179154 0.976568 0.003527
v 0.179154 0.976568 0.003527
v 0.196835 0.991707 -0.024225
v 0.196835 0.991707 -0.024225
v 0.226258 0.991361 -0.037072
v 0.226258 0.991361 -0.037072
v 0.247991 0.970362 -0.048461
v 0.247991 0.970362 -0.048461
v 0.373493 0.912027 -0.078361
v 0.373493 0.912027 -0.078361
v 0.276695 0.946118 -0.216541
v 0.276695 0.946118 -0.216541
v 0.188069 0.989123 -0.186993
v 0.188069 0.989123 -0.186993
v 0.159077 0.992961 -0.159072
v 0.159077 0.992961 -0.159072
v 0.109994 1.002019 -0.156094
v 0.109994 1.002019 -0.156094
v 0.067467 0.994118 -0.134135
v 0.067467 0.994118 -0.134135
v 0.031004 0.994435 -0.097393
v 0.031004 0.994435 -0.097393
v 0.008434 0.994615 -0.071689
v 0.008434 0.994615 -0.071689
v -0.010058 0.968424 0.032739
v -0.010058 0.968424 0.032739
v 0.480916 0.861325 -0.226174
v 0.480916 0.861325 -0.226174
v 0.045335 0.993792 -0.015068
v 0.045335 0.993792 -0.015068
v 0.045335 0.993792 -0.015068
v 0.045335 0.993792 -0.015068
v 0.090871 1.015444 -0.028141
v 0.090871 1.015444 -0.028141
v 0.090871 1.015444 -0.028141
v 0.090871 1.015444 -0.028141
v 0.119811 1.018659 -0.058048
v 0.119811 1.018659 -0.058048
v 0.119811 1.018659 -0.058048
v 0.119811 1.018659 -0.058048
v 0.161045 1.007494 -0.087194
v 0.161045 1.007494 -0.087194
v 0.161045 1.007494 -0.087194
v 0.161045 1.007494 -0.087194
v 0.193244 0.994245 -0.096193
v 0.193244 0.994245 -0.096193
v 0.193244 0.994245 -0.096193
v 0.193244 0.994245 -0.096193
v 0.228092 0.994105 -0.104751
v 0.228092 0.994105 -0.104751
v 0.228092 0.994105 -0.104751
v 0.228092 0.994105 -0.104751
v 0.343485 0.954891 -0.155397
v 0.343485 0.954891 -0.155397
v 0.343485 0.954891 -0.155397
v 0.343485 0.954891 -0.155397
v -0.001510 0.954121 -0.009977
v -0.054278 0.957739 -0.018018
v -0.371887 0.930416 0.361425
v -0.235956 0.978721 0.406019
v -0.101310 0.985832 0.013438
v -0.101310 0.985832 0.013438
v -0.153134 0.988637 0.033793
v -0.153134 0.988637 0.033793
v -0.180254 0.983852 0.086869
v -0.180254 0.983852 0.086869
v -0.183785 1.005746 0.116683
v -0.183785 1.005746 0.116683
v -0.204316 1.010411 0.141045
v -0.204316 1.010411 0.141045
v -0.218388 0.993849 0.163957
v -0.218388 0.993849 0.163957
v -0.316464 0.952883 0.254936
v -0.316464 0.952883 0.254936
v -0.168384 1.006017 0.327950
v -0.168384 1.006017 0.327950
v -0.102929 1.035038 0.256019
v -0.102929 1.035038 0.256019
v -0.089585 1.030826 0.218073
v -0.089585 1.030826 0.218073
v -0.047159 1.035070 0.192294
v -0.047159 1.035070 0.192294
v -0.018909 1.019392 0.155422
v -0.018909 1.019392 0.155422
v -0.002802 1.009336 0.106978
v -0.002802 1.009336 0.106978
v 0.005841 1.002503 0.074397
v 0.005841 1.002503 0.074397
v -0.024159 0.954342 -0.021321
v -0.024159 0.954342 -0.021321
v -0.345594 0.941508 0.440169
v -0.345594 0.941508 0.440169
v -0.052520 0.993423 0.041195
v -0.052520 0.993423 0.041195
v -0.052520 0.993423 0.041195
v -0.052520 0.993423 0.041195
v -0.087604 1.021088 0.069449
v -0.087604 1.021088 0.069449
v -0.087604 1.021088 0.069449
v -0.087604 1.021088 0.069449
v -0.100094 1.032625 0.108010
v -0.100094 1.032625 0.108010
v -0.100094 1.032625 0.108010
v -0.100094 1.032625 0.108010
v -0.123745 1.030895 0.153602
v -0.123745 1.030895 0.153602
v -0.123745 1.030895 0.153602
v -0.123745 1.030895 0.153602
v -0.148332 1.022339 0.177839
v -0.148332 1.022339 0.177839
v -0.148332 1.022339 0.177839
v -0.148332 1.022339 0.177839
v -0.175637 1.026796 0.200811
v -0.175637 1.026796 0.200811
v -0.175637 1.026796 0.200811
v -0.175637 1.026796 0.200811
v -0.255597 1.007937 0.302519
v -0.255597 1.007937 0.302519
v -0.255597 1.007937 0.302519
v -0.255597 1.007937 0.302519
v 0.001165 0.959519 0.021334
v 0.046055 0.966433 -0.007105
v 0.051531 0.868097 -0.495314
v -0.085973 0.901803 -0.446049
v 0.058726 0.988760 -0.064130
v 0.058726 0.988760 -0.064130
v 0.085040 0.988760 -0.113255
v 0.085040 0.988760 -0.113255
v 0.072724 0.973522 -0.170255
v 0.072724 0.973522 -0.170255
v 0.053997 0.988760 -0.197272
v 0.053997 0.988760 -0.197272
v 0.053700 0.988760 -0.229378
v 0.053700 0.988760 -0.229378
v 0.051889 0.968007 -0.254000
v 0.051889 0.968007 -0.254000
v 0.073959 0.911285 -0.381641
v 0.073959 0.911285 -0.381641
v -0.091342 0.943269 -0.346424
v -0.091342 0.943269 -0.346424
v -0.099181 0.985181 -0.252971
v -0.099181 0.985181 -0.252971
v -0.084871 0.988760 -0.215331
v -0.084871 0.988760 -0.215331
v -0.101418 0.997142 -0.168933
v -0.101418 0.997142 -0.168933
v -0.097804 0.988760 -0.121268
v -0.097804 0.988760 -0.121268
v -0.078277 0.988760 -0.073328
v -0.078277 0.988760 -0.073328
v -0.063465 0.988760 -0.042494
v -0.063465 0.988760 -0.042494
v 0.025579 0.962869 0.015210
v 0.025579 0.962869 0.015210
v -0.019600 0.861308 -0.538765
v -0.019600 0.861308 -0.538765
v 0.003088 0.988760 -0.054278
v 0.003088 0.988760 -0.054278
v 0.003088 0.988760 -0.054278
v 0.003088 0.988760 -0.054278
v 0.008725 1.010981 -0.101123
v 0.008725 1.010981 -0.101123
v 0.008725 1.010981 -0.101123
v 0.008725 1.010981 -0.101123
v -0.007486 1.014443 -0.139438
v -0.007486 1.014443 -0.139438
v -0.007486 1.014443 -0.139438
v -0.007486 1.014443 -0.139438
v -0.018075 1.003704 -0.188878
v -0.018075 1.003704 -0.188878
v -0.018075 1.003704 -0.188878
v -0.018075 1.003704 -0.188878
v -0.013647 0.990862 -0.222132
v -0.013647 0.990862 -0.222132
v -0.013647 0.990862 -0.222132
v -0.013647 0.990862 -0.222132
v -0.007876 0.991166 -0.257548
v -0.007876 0.991166 -0.257548
v -0.007876 0.991166 -0.257548
v -0.007876 0.991166 -0.257548
v -0.008997 0.953309 -0.383862
v -0.008997 0.953309 -0.383862
v -0.008997 0.953309 -0.383862
v -0.008997 0.953309 -0.383862
vn 0.3513 -0.0483 -0.9350
vn 0.9189 -0.0503 -0.3912
vn 0.9517 -0.0603 0.3010
vn 0.3771 -0.0451 0.9251
vn 0.3770 -0.0451 0.9251
vn -0.3085 -0.0318 0.9507
vn -0.3085 -0.0317 0.9507
vn -0.9242 -0.0509 0.3785
vn -0.0049 1.0000 0.0072
vn -0.0050 1.0000 0.0070
vn -0.0049 1.0000 0.0069
vn -0.0048 1.0000 0.0067
vn -0.0050 1.0000 0.0069
vn -0.9673 -0.0376 -0.2507
vn -0.3995 -0.0553 -0.9151
vn -0.3994 -0.0553 -0.9151
vn -0.0084 -0.9996 -0.0285
vn -0.0084 -0.9996 -0.0284
vn 0.3444 -0.0138 -0.9387
vn 0.3445 -0.0138 -0.9387
vn -0.3495 -0.0776 0.9337
vn 0.9210 -0.0581 -0.3852
vn 0.9417 -0.0266 -0.3354
vn 0.9417 -0.0266 -0.3353
vn 0.4218 -0.0451 0.9055
vn 0.4219 -0.0451 0.9055
vn 0.4218 -0.0451 0.9056
vn 0.9309 -0.0557 0.3610
vn 0.9309 -0.0556 0.3610
vn 0.3588 -0.0390 0.9326
vn 0.3589 -0.0390 0.9326
vn 0.3664 -0.0648 -0.9282
vn 0.3663 -0.0648 -0.9282
vn -0.4122 -0.0928 0.9063
vn -0.4122 -0.0928 0.9064
vn 0.9278 -0.0714 0.3662
vn 0.9278 -0.0714 0.3661
vn -0.9377 -0.1097 0.3296
vn -0.9378 -0.1097 0.3295
vn 0.0018 0.9999 0.0099
vn 0.0019 0.9999 0.0100
vn -0.8958 -0.0817 -0.4368
vn 0.3670 -0.0709 -0.9275
vn 0.3671 -0.0710 -0.9275
vn 0.3670 -0.0710 -0.9275
vn 0.3827 -0.0000 0.9239
vn -0.4120 -0.0481 -0.9099
vn -0.0000 -1.0000 -0.0000
vn 0.9435 -0.0140 0.3311
vn 0.9435 -0.0140 0.3312
vn -0.9304 -0.1030 0.3517
vn -0.8883 -0.0903 -0.4503
vn 0.9386 -0.0390 -0.3429
vn -0.3827 -0.0000 0.9239
vn -0.3603 -0.0902 -0.9285
vn -0.3603 -0.0903 -0.9285
vn 0.0069 1.0000 0.0065
vn 0.0069 1.0000 0.0064
vn 0.0068 1.0000 0.0064
vn 0.0070 1.0000 0.0065
vn -0.9239 -0.0000 0.3827
vn 0.0126 0.9989 -0.0442
vn -0.9380 -0.0127 -0.3464
vn -0.9380 -0.0127 -0.3463
vn -0.3991 -0.0837 -0.9131
vn -0.3992 -0.0837 -0.9131
vn 0.0087 -0.9999 -0.0087
vn 0.4748 0.8665 0.1542
vn 0.4748 0.8665 0.1543
vn -0.2868 0.9317 -0.2228
vn -0.1582 0.9573 -0.2421
vn -0.1581 0.9573 -0.2421
vn 0.0604 0.9650 -0.2552
vn 0.0605 0.9650 -0.2552
vn 0.1237 0.9833 -0.1334
vn 0.1236 0.9833 -0.1335
vn 0.2739 0.9542 0.1203
vn 0.2739 0.9542 0.1204
vn 0.0641 0.9979 -0.0112
vn 0.3625 0.9250 0.1140
vn 0.3625 0.9250 0.1139
vn -0.0723 0.8663 0.4942
vn -0.0723 0.8663 0.4943
vn -0.0722 0.8663 0.4942
vn 0.0998 0.9351 0.3399
vn 0.0999 0.9351 0.3399
vn 0.0998 0.9352 0.3398
vn 0.0662 0.9776 0.1997
vn -0.1755 0.9422 0.2854
vn -0.0671 0.9255 0.3728
vn -0.0670 0.9255 0.3729
vn -0.3479 0.9363 -0.0485
vn -0.3479 0.9363 -0.0486
vn -0.3224 0.9321 -0.1653
vn -0.3224 0.9321 -0.1652
vn 0.1062 0.8282 0.5503
vn 0.1062 0.8282 0.5504
vn 0.0089 0.9724 -0.2331
vn 0.1983 0.7965 0.5712
vn 0.1134 0.8570 0.5026
vn 0.1134 0.8571 0.5026
vn -0.0268 0.9315 0.3628
vn -0.0269 0.9315 0.3628
vn 0.0305 0.9690 0.2450
vn 0.0305 0.9690 0.2451
vn 0.1269 0.9913 -0.0355
vn 0.1626 0.9635 0.2126
vn 0.1626 0.9635 0.2125
vn 0.0608 0.9926 -0.1053
vn 0.5971 0.8010 -0.0442
vn 0.5971 0.8009 -0.0442
vn 0.3952 0.9170 -0.0537
vn 0.3952 0.9170 -0.0538
vn 0.3951 0.9171 -0.0537
vn 0.3170 0.9458 0.0712
vn 0.3170 0.9458 0.0711
vn 0.5134 0.8391 0.1799
vn 0.5142 0.8565 0.0439
vn 0.5143 0.8565 0.0439
vn 0.3630 0.7832 0.5048
vn 0.3631 0.7832 0.5048
vn 0.3630 0.7832 0.5049
vn 0.2617 0.7866 0.5592
vn 0.5301 0.8186 -0.2211
vn 0.5300 0.8187 -0.2211
vn 0.5300 0.8186 -0.2211
vn -0.4016 0.9156 0.0186
vn 0.4369 0.8830 0.1714
vn 0.4369 0.8830 0.1715
vn 0.3243 0.9185 0.2262
vn 0.3242 0.9185 0.2262
vn 0.3242 0.9186 0.2262
vn 0.1220 0.9461 0.3002
vn 0.1220 0.9461 0.3001
vn 0.0311 0.9788 0.2026
vn 0.0312 0.9788 0.2027
vn 0.0312 0.9787 0.2027
vn -0.1861 0.9825 -0.0007
vn -0.1862 0.9825 -0.0008
vn 0.0569 0.9960 0.0696
vn -0.2738 0.9614 0.0288
vn 0.0355 0.8865 -0.4614
vn -0.0802 0.9616 -0.2623
vn -0.0802 0.9617 -0.2623
vn -0.0802 0.9617 -0.2622
vn -0.0048 0.9910 -0.1337
vn -0.0047 0.9910 -0.1337
vn 0.1993 0.9381 -0.2833
vn 0.1992 0.9381 -0.2833
vn 0.1992 0.9381 -0.2834
vn 0.0703 0.9379 -0.3397
vn 0.0702 0.9379 -0.3397
vn 0.0703 0.9379 -0.3396
vn 0.4492 0.8934 -0.0105
vn 0.4492 0.8934 -0.0104
vn 0.4552 0.8839 0.1070
vn -0.1567 0.8686 -0.4701
vn -0.1567 0.8687 -0.4700
vn -0.1567 0.8686 -0.4700
vn 0.3412 0.8640 -0.3704
vn 0.3412 0.8639 -0.3704
vn -0.3051 0.9350 0.1805
vn -0.3051 0.9350 0.1806
vn -0.2717 0.9608 0.0548
vn -0.2717 0.9608 0.0547
vn -0.2716 0.9608 0.0547
vn -0.1972 0.9686 -0.1514
vn -0.0599 0.9851 -0.1611
vn -0.0600 0.9851 -0.1611
vn 0.2319 0.9522 -0.1989
vn 0.0291 0.9979 -0.0580
vn 0.2608 0.9230 -0.2828
vn 0.2609 0.9230 -0.2828
vn 0.4368 0.8594 0.2658
vn 0.3643 0.9300 0.0476
vn 0.3643 0.9301 0.0476
vn 0.3642 0.9301 0.0476
vn 0.2232 0.9745 0.0232
vn 0.2231 0.9745 0.0232
vn 0.2059 0.9381 0.2787
vn 0.3285 0.9200 0.2136
vn -0.1689 0.9371 0.3055
vn -0.1688 0.9371 0.3055
vn -0.2661 0.9346 0.2360
vn -0.2661 0.9346 0.2361
vn 0.5580 0.8205 0.1242
vn 0.5580 0.8205 0.1241
vn -0.1559 0.9425 0.2956
vn 0.1732 0.8570 -0.4854
vn 0.2000 0.9070 -0.3706
vn 0.1999 0.9070 -0.3706
vn 0.1999 0.9070 -0.3705
vn 0.2281 0.9598 -0.1633
vn 0.2281 0.9599 -0.1633
vn 0.2281 0.9599 -0.1632
vn 0.1102 0.9891 -0.0979
vn 0.1102 0.9891 -0.0980
vn -0.1347 0.9882 0.0724
vn -0.0159 0.9884 -0.1513
vn -0.0160 0.9884 -0.1512
vn -0.1229 0.9783 0.1669
vn -0.5189 0.8252 -0.2233
vn -0.5189 0.8251 -0.2233
vn -0.3617 0.9287 -0.0811
vn -0.3618 0.9287 -0.0811
vn -0.3617 0.9288 -0.0812
vn -0.3616 0.9288 -0.0812
vn -0.2249 0.9654 -0.1316
vn -0.2249 0.9655 -0.1316
vn -0.2250 0.9654 -0.1315
vn -0.3191 0.8805 -0.3506
vn -0.3191 0.8805 -0.3505
vn -0.3192 0.8805 -0.3505
vn -0.4005 0.8848 -0.2383
vn -0.0011 0.8464 -0.5325
vn 0.1144 0.8494 -0.5152
vn 0.1145 0.8494 -0.5152
vn -0.5678 0.8223 -0.0389
vn -0.5677 0.8223 -0.0388
vn -0.5678 0.8223 -0.0388
vn -0.5678 0.8222 -0.0389
vn -0.2164 0.8665 -0.4499
vn -0.2163 0.8665 -0.4499
vn 0.0368 0.9317 0.3613
vn -0.0659 0.9572 0.2817
vn -0.0659 0.9573 0.2816
vn -0.2264 0.9650 0.1325
vn -0.2264 0.9650 0.1326
vn -0.1820 0.9833 0.0028
vn -0.1022 0.9542 -0.2812
vn -0.0523 0.9979 -0.0387
vn -0.0523 0.9979 -0.0386
vn -0.1679 0.9250 -0.3409
vn 0.4074 0.8663 -0.2890
vn 0.1770 0.9351 -0.3069
vn 0.1769 0.9351 -0.3069
vn 0.1769 0.9352 -0.3068
vn 0.0986 0.9776 -0.1859
vn 0.0987 0.9776 -0.1860
vn 0.3276 0.9422 -0.0701
vn 0.3276 0.9422 -0.0702
vn 0.3275 0.9422 -0.0702
vn 0.3160 0.9255 -0.2089
vn 0.2052 0.9363 0.2850
vn 0.2051 0.9363 0.2851
vn 0.1031 0.9321 0.3472
vn 0.1031 0.9321 0.3473
vn 0.3248 0.8281 -0.4568
vn 0.3247 0.8282 -0.4568
vn 0.3248 0.8282 -0.4568
vt 1.000000 0.500000
vt 1.000000 1.000000
vt 0.875000 1.000000
vt 0.875000 0.500000
vt 0.750000 1.000000
vt 0.750000 0.500000
vt 0.625000 1.000000
vt 0.625000 0.500000
vt 0.500000 1.000000
vt 0.500000 0.500000
vt 0.375000 1.000000
vt 0.375000 0.500000
vt 0.250000 1.000000
vt 0.250000 0.500000
vt 0.490000 0.250000
vt 0.419706 0.419706
vt 0.250000 0.490000
vt 0.080294 0.419706
vt 0.010000 0.250000
vt 0.080294 0.080294
vt 0.250000 0.010000
vt 0.419706 0.080294
vt 0.125000 1.000000
vt 0.125000 0.500000
vt 0.000000 1.000000
vt 0.000000 0.500000
vt 0.580294 0.419706
vt 0.750000 0.490000
vt 0.919706 0.419706
vt 0.990000 0.250000
vt 0.919706 0.080294
vt 0.750000 0.010000
vt 0.580294 0.080294
vt 0.510000 0.250000
vt 0.873804 0.455339
vt 1.000000 0.455340
vt 0.873804 1.000000
vt 0.000000 0.455339
vt 0.123804 0.455339
vt 0.123804 1.000000
vt 0.248804 0.455340
vt 0.248804 1.000000
vt 0.373804 0.455339
vt 0.373804 1.000000
vt 0.498804 0.455340
vt 0.498804 1.000000
vt 0.623804 0.455340
vt 0.623804 1.000000
vt 0.748804 0.455339
vt 0.748804 1.000000
vt 0.748804 0.000000
vt 0.873804 0.000000
vt 0.623804 0.000000
vt 0.498804 0.000000
vt 0.373804 0.000000
vt 0.248804 0.000000
vt 0.123804 0.000000
vt 0.000000 0.000000
vt 1.000000 0.000000
s 1
usemtl Troncou
f 1/1/1 4/2/1 10/3/1
f 1/1/1 10/3/1 7/4/1
f 8/4/2 11/3/2 16/5/2
f 8/4/2 16/5/2 13/6/2
f 14/6/3 17/5/3 23/7/3
f 14/6/3 23/7/3 20/8/3
f 19/8/4 22/7/4 28/9/5
f 19/8/4 28/9/5 25/10/4
f 27/10/6 30/9/7 35/11/6
f 27/10/6 35/11/6 32/12/6
f 33/12/8 36/11/8 41/13/8
f 33/12/8 41/13/8 38/14/8
f 18/15/9 12/16/10 5/17/11
f 5/17/11 46/18/11 40/19/12
f 40/19/12 34/20/13 29/21/11
f 29/21/11 24/22/11 18/15/9
f 18/15/9 5/17/11 40/19/12
f 40/19/12 29/21/11 18/15/9
f 39/14/14 42/13/14 48/23/14
f 39/14/14 48/23/14 45/24/14
f 44/24/15 47/23/15 6/25/15
f 44/24/15 6/25/15 3/26/16
f 43/27/17 2/28/18 9/29/17
f 9/29/17 15/30/17 21/31/17
f 21/31/17 26/32/17 31/33/17
f 31/33/17 37/34/17 43/27/17
f 43/27/17 9/29/17 21/31/17
f 21/31/17 31/33/17 43/27/17
f 50/1/19 53/2/19 59/3/19
f 50/1/19 59/3/19 56/4/20
f 123/1/21 126/2/21 131/3/21
f 123/1/21 131/3/21 128/4/21
f 105/4/22 108/3/22 113/5/22
f 105/4/22 113/5/22 110/6/22
f 57/4/23 60/3/24 66/5/23
f 57/4/23 66/5/23 63/6/23
f 116/6/25 119/5/26 125/7/27
f 116/6/25 125/7/27 122/8/27
f 62/6/28 65/5/29 72/7/29
f 62/6/28 72/7/29 69/8/29
f 68/8/30 71/7/30 77/9/30
f 68/8/30 77/9/30 74/10/31
f 98/8/32 101/7/33 107/9/33
f 98/8/32 107/9/33 104/10/32
f 75/10/34 78/9/34 83/11/35
f 75/10/34 83/11/35 80/12/34
f 111/10/36 114/9/36 120/11/37
f 111/10/36 120/11/37 117/12/37
f 81/12/38 84/11/39 90/13/39
f 81/12/38 90/13/39 87/14/38
f 64/15/40 58/16/40 52/17/40
f 52/17/40 94/18/41 88/19/40
f 88/19/40 82/20/40 76/21/40
f 76/21/40 70/22/40 64/15/40
f 64/15/40 52/17/40 88/19/40
f 88/19/40 76/21/40 64/15/40
f 86/14/42 89/13/42 96/23/42
f 86/14/42 96/23/42 93/24/42
f 146/1/43 149/2/44 155/3/45
f 146/1/43 155/3/45 152/4/43
s 0
f 164/4/46 167/3/46 173/5/46
s 1
f 164/4/46 173/5/46 170/6/46
f 92/24/47 95/23/47 54/25/47
f 92/24/47 54/25/47 51/26/47
s 0
f 91/27/48 49/28/48 55/29/48
f 55/29/48 61/30/48 67/31/48
f 67/31/48 73/32/48 79/33/48
f 79/33/48 85/34/48 91/27/48
f 91/27/48 55/29/48 67/31/48
f 67/31/48 79/33/48 91/27/48
s 1
f 159/6/49 162/5/50 168/7/49
f 159/6/49 168/7/49 165/8/49
f 129/12/51 132/11/51 138/13/51
f 129/12/51 138/13/51 135/14/51
s 0
f 103/29/48 109/30/48 115/31/48
f 115/31/48 121/32/48 127/33/48
f 127/33/48 133/34/48 139/27/48
f 139/27/48 97/28/48 103/29/48
f 103/29/48 115/31/48 127/33/48
f 127/33/48 139/27/48 103/29/48
s 1
f 134/14/52 137/13/52 144/23/52
f 134/14/52 144/23/52 141/24/52
f 153/8/53 156/7/53 161/9/53
f 153/8/53 161/9/53 158/10/53
s 0
f 171/10/54 174/9/54 179/11/54
s 1
f 171/10/54 179/11/54 176/12/54
f 140/24/55 143/23/56 102/25/56
f 140/24/55 102/25/56 99/26/55
f 136/19/57 130/20/58 124/21/57
f 124/21/57 118/22/59 112/15/57
f 112/15/57 106/16/58 100/17/58
f 100/17/58 142/18/60 136/19/57
f 136/19/57 124/21/57 112/15/57
f 112/15/57 100/17/58 136/19/57
s 0
f 177/12/61 180/11/61 185/13/61
f 177/12/61 185/13/61 182/14/61
s 1
f 166/22/62 160/15/62 154/16/62
f 154/16/62 148/17/62 190/18/62
f 190/18/62 184/19/62 178/20/62
f 178/20/62 172/21/62 166/22/62
f 166/22/62 154/16/62 190/18/62
f 190/18/62 178/20/62 166/22/62
f 183/14/63 186/13/64 192/23/64
f 183/14/63 192/23/64 189/24/64
f 188/24/65 191/23/65 150/25/66
f 188/24/65 150/25/66 147/26/65
f 157/30/67 163/31/67 169/32/67
f 169/32/67 175/33/67 181/34/67
f 181/34/67 187/27/67 145/28/67
f 145/28/67 151/29/67 157/30/67
f 157/30/67 169/32/67 181/34/67
f 181/34/67 145/28/67 157/30/67
usemtl Hojas
f 255/35/68 228/36/69 196/2/68
f 255/35/68 196/2/68 212/37/68
f 225/38/70 230/39/70 224/40/70
f 225/38/70 224/40/70 193/25/70
f 229/39/71 235/41/71 222/42/71
f 229/39/71 222/42/71 223/40/72
f 233/41/73 237/43/74 219/44/74
f 233/41/73 219/44/74 221/42/74
f 238/43/75 242/45/75 217/46/76
f 238/43/75 217/46/76 220/44/76
f 243/45/77 248/47/78 216/48/77
f 243/45/77 216/48/77 218/46/77
f 245/47/79 249/49/79 213/50/79
f 245/47/79 213/50/79 215/48/79
f 251/49/80 254/35/81 211/37/81
f 251/49/80 211/37/81 214/50/80
f 208/51/82 210/52/83 256/35/82
f 208/51/82 256/35/82 252/49/84
f 206/53/85 207/51/86 250/49/87
f 206/53/85 250/49/87 247/47/87
f 203/54/88 205/53/88 246/47/88
f 203/54/88 246/47/88 241/45/88
f 202/55/89 204/54/89 244/45/89
f 202/55/89 244/45/89 240/43/89
f 199/56/90 201/55/91 239/43/90
f 199/56/90 239/43/90 234/41/90
f 198/57/92 200/56/92 236/41/92
f 198/57/92 236/41/92 232/39/93
f 194/58/94 197/57/95 231/39/95
f 194/58/94 231/39/95 226/38/95
f 209/52/96 195/59/96 227/36/96
f 209/52/96 227/36/96 253/35/97
f 317/35/98 291/36/98 260/2/98
f 317/35/98 260/2/98 275/37/98
f 289/38/99 294/39/99 288/40/99
f 289/38/99 288/40/99 257/25/99
f 293/39/100 297/41/100 285/42/101
f 293/39/100 285/42/101 287/40/101
f 300/41/102 304/43/102 284/44/103
f 300/41/102 284/44/103 286/42/103
f 301/43/104 305/45/104 281/46/104
f 301/43/104 281/46/104 283/44/105
f 306/45/106 309/47/106 279/48/106
f 306/45/106 279/48/106 282/46/106
f 310/47/107 314/49/108 278/50/108
f 310/47/107 278/50/108 280/48/108
f 313/49/109 318/35/109 276/37/109
f 313/49/109 276/37/109 277/50/109
f 272/51/110 274/52/111 320/35/111
f 272/51/110 320/35/111 316/49/110
f 270/53/112 271/51/113 315/49/114
f 270/53/112 315/49/114 312/47/112
f 267/54/115 269/53/115 311/47/115
f 267/54/115 311/47/115 307/45/116
f 266/55/117 268/54/117 308/45/117
f 266/55/117 308/45/117 303/43/117
f 264/56/118 265/55/119 302/43/118
f 264/56/118 302/43/118 299/41/118
f 262/57/120 263/56/121 298/41/122
f 262/57/120 298/41/122 296/39/122
f 258/58/123 261/57/123 295/39/123
f 258/58/123 295/39/123 290/38/123
f 273/52/124 259/59/125 292/36/126
f 273/52/124 292/36/126 319/35/124
f 384/35/127 356/36/127 324/2/127
f 384/35/127 324/2/127 340/37/127
f 353/38/128 358/39/128 352/40/128
f 353/38/128 352/40/128 321/25/129
f 357/39/130 363/41/130 350/42/131
f 357/39/130 350/42/131 351/40/132
f 362/41/133 367/43/134 348/44/133
f 362/41/133 348/44/133 349/42/134
f 365/43/135 369/45/135 345/46/136
f 365/43/135 345/46/136 347/44/137
f 372/45/138 376/47/139 344/48/138
f 372/45/138 344/48/138 346/46/138
f 373/47/140 378/49/140 341/50/140
f 373/47/140 341/50/140 343/48/140
f 380/49/141 383/35/141 339/37/141
f 380/49/141 339/37/141 342/50/141
f 335/51/142 337/52/142 381/35/142
f 335/51/142 381/35/142 377/49/142
f 334/53/143 336/51/144 379/49/145
f 334/53/143 379/49/145 375/47/145
f 332/54/146 333/53/147 374/47/146
f 332/54/146 374/47/146 371/45/146
f 330/55/148 331/54/148 370/45/149
f 330/55/148 370/45/149 368/43/150
f 327/56/151 329/55/152 366/43/153
f 327/56/151 366/43/153 361/41/153
f 325/57/154 328/56/154 364/41/154
f 325/57/154 364/41/154 359/39/155
f 322/58/156 326/57/156 360/39/156
f 322/58/156 360/39/156 354/38/156
f 338/52/157 323/59/158 355/36/159
f 338/52/157 355/36/159 382/35/157
f 446/35/160 419/36/161 388/2/160
f 446/35/160 388/2/160 404/37/160
f 418/38/162 424/39/163 416/40/162
f 418/38/162 416/40/162 385/25/162
f 423/39/164 428/41/165 414/42/166
f 423/39/164 414/42/166 415/40/166
f 427/41/167 432/43/167 412/44/167
f 427/41/167 412/44/167 413/42/167
f 431/43/168 436/45/168 410/46/168
f 431/43/168 410/46/168 411/44/169
f 435/45/170 439/47/170 408/48/170
f 435/45/170 408/48/170 409/46/170
f 437/47/171 441/49/171 405/50/171
f 437/47/171 405/50/171 407/48/171
f 442/49/172 445/35/172 403/37/172
f 442/49/172 403/37/172 406/50/173
f 400/51/174 401/52/174 447/35/174
f 400/51/174 447/35/174 444/49/174
f 398/53/175 399/51/176 443/49/176
f 398/53/175 443/49/176 440/47/177
f 396/54/178 397/53/179 438/47/178
f 396/54/178 438/47/178 434/45/178
f 393/55/180 395/54/180 433/45/180
f 393/55/180 433/45/180 429/43/180
f 391/56/181 394/55/181 430/43/181
f 391/56/181 430/43/181 425/41/181
f 389/57/182 392/56/183 426/41/182
f 389/57/182 426/41/182 421/39/182
f 386/58/184 390/57/184 422/39/184
f 386/58/184 422/39/184 417/38/185
f 402/52/186 387/59/187 420/36/186
f 402/52/186 420/36/186 448/35/186
f 510/35/188 483/36/188 452/2/188
f 510/35/188 452/2/188 468/37/188
f 482/38/189 486/39/189 479/40/189
f 482/38/189 479/40/189 449/25/189
f 487/39/190 489/41/190 477/42/191
f 487/39/190 477/42/191 480/40/192
f 490/41/193 494/43/194 476/44/195
f 490/41/193 476/44/195 478/42/194
f 493/43/196 497/45/196 473/46/197
f 493/43/196 473/46/197 475/44/197
f 498/45/198 502/47/198 472/48/198
f 498/45/198 472/48/198 474/46/198
f 501/47/199 505/49/199 469/50/200
f 501/47/199 469/50/200 471/48/199
f 506/49/201 509/35/201 467/37/201
f 506/49/201 467/37/201 470/50/201
f 464/51/202 465/52/202 511/35/203
f 464/51/202 511/35/203 508/49/202
f 462/53/204 463/51/205 507/49/206
f 462/53/204 507/49/206 504/47/207
f 459/54/208 461/53/209 503/47/210
f 459/54/208 503/47/210 499/45/210
f 457/55/211 460/54/211 500/45/212
f 457/55/211 500/45/212 495/43/213
f 456/56/214 458/55/214 496/43/214
f 456/56/214 496/43/214 492/41/214
f 454/57/215 455/56/215 491/41/215
f 454/57/215 491/41/215 488/39/215
f 450/58/216 453/57/217 485/39/216
f 450/58/216 485/39/216 481/38/216
f 466/52/218 451/59/219 484/36/220
f 466/52/218 484/36/220 512/35/221
f 576/35/222 548/36/223 516/2/222
f 576/35/222 516/2/222 532/37/222
f 545/38/224 549/39/224 543/40/224
f 545/38/224 543/40/224 513/25/224
f 552/39/225 555/41/225 541/42/225
f 552/39/225 541/42/225 544/40/226
f 556/41/227 560/43/228 540/44/227
f 556/41/227 540/44/227 542/42/227
f 559/43/229 564/45/229 538/46/229
f 559/43/229 538/46/229 539/44/229
f 563/45/230 568/47/230 536/48/230
f 563/45/230 536/48/230 537/46/230
f 567/47/231 571/49/232 533/50/231
f 567/47/231 533/50/231 535/48/231
f 572/49/233 575/35/233 531/37/233
f 572/49/233 531/37/233 534/50/233
f 528/51/234 530/52/234 574/35/234
f 528/51/234 574/35/234 570/49/234
f 526/53/235 527/51/236 569/49/237
f 526/53/235 569/49/237 566/47/237
f 523/54/238 525/53/238 565/47/239
f 523/54/238 565/47/239 561/45/239
f 522/55/240 524/54/240 562/45/241
f 522/55/240 562/45/241 558/43/242
f 520/56/243 521/55/243 557/43/243
f 520/56/243 557/43/243 554/41/243
f 518/57/244 519/56/244 553/41/245
f 518/57/244 553/41/245 551/39/245
f 514/58/246 517/57/246 550/39/247
f 514/58/246 550/39/247 546/38/246
f 529/52/248 515/59/249 547/36/249
f 529/52/248 547/36/249 573/35/250
