# Blender 5.0.1
# www.blender.org
mtllib Palmeira2.mtl
o Palmeira.001
v 8.000133 0.045108 0.039388
v 7.901322 2.594881 -0.102017
v 8.662230 0.093287 0.335475
v 8.789486 2.596756 0.181355
v 8.974115 0.032899 1.002032
v 9.099975 2.590173 0.987001
v 8.681222 0.032899 1.709138
v 8.924173 2.586428 1.760850
v 7.974115 0.032899 2.002032
v 8.117283 2.583628 2.084970
v 7.267008 0.032899 1.709138
v 7.091105 2.579885 1.815315
v 6.969535 0.058553 1.120634
v 6.864812 2.578929 1.128906
v 7.168530 0.091666 0.395403
v 7.076472 2.589237 0.262128
v 7.974115 2.565974 0.014881
v 7.801631 4.366425 -0.046090
v 8.681222 2.565974 0.307774
v 8.772732 4.430696 0.275771
v 8.974115 2.565974 1.014881
v 9.040277 4.465285 1.139355
v 8.681222 2.565974 1.721988
v 8.803862 4.398551 1.785530
v 7.974115 2.565974 2.014881
v 7.759364 4.406753 2.167073
v 7.267008 2.565974 1.721988
v 6.995188 4.395805 1.789629
v 6.974115 2.565974 1.014881
v 6.743649 4.448976 0.968078
v 7.267008 2.565974 0.307774
v 7.128879 4.473547 0.279265
v 7.974115 4.378000 0.014881
v 7.900737 6.634115 -0.158723
v 8.681222 4.377949 0.307774
v 8.762110 6.587850 0.168777
v 8.974115 4.378326 1.014881
v 9.129809 6.640387 1.033740
v 8.681222 4.378658 1.721988
v 8.878299 6.665366 1.708980
v 7.974115 4.378661 2.014881
v 7.962049 6.599921 2.169157
v 7.267008 4.378951 1.721988
v 7.037627 6.648210 1.855086
v 6.974115 4.378525 1.014881
v 6.719611 6.596339 0.934953
v 7.267008 4.378090 0.307774
v 7.205418 6.753572 0.082333
v 7.988244 6.611874 0.108615
v 7.898254 8.738211 -0.172531
v 8.681222 6.549439 0.307774
v 8.706585 8.809670 0.219601
v 8.899001 6.599836 1.003544
v 8.998359 8.809259 0.915521
v 8.681222 6.562942 1.721988
v 8.681222 8.857819 1.721988
v 7.974115 6.563051 2.014881
v 7.974115 8.834737 2.014881
v 7.267008 6.575551 1.721988
v 7.267008 8.846292 1.721988
v 6.974115 6.567363 1.014881
v 6.974115 8.842614 1.014881
v 7.267008 6.578742 0.307774
v 7.232186 8.825556 0.231402
v 8.010770 8.840771 1.104429
v 7.585321 8.896037 1.422842
v 7.910106 7.186813 6.294424
v 9.242707 7.473922 5.696414
v 7.503306 9.020391 2.001220
v 7.279138 8.874736 2.511434
v 7.446218 8.582517 3.070139
v 7.653923 8.649156 3.324940
v 7.681832 8.540854 3.644792
v 7.719014 8.277587 3.888862
v 7.598168 7.555471 5.178562
v 9.218815 7.845366 4.699009
v 9.224347 8.407008 3.761209
v 9.052429 8.571712 3.397072
v 9.181347 8.774012 2.921634
v 9.108277 8.847867 2.449233
v 8.876342 8.990692 1.986454
v 8.704713 9.055666 1.690556
v 7.772128 8.871380 1.184457
v 8.653034 7.128980 6.672346
v 8.050354 9.075572 1.859763
v 8.030559 9.165788 2.331175
v 8.221951 9.086442 2.700564
v 8.365936 8.828966 3.185245
v 8.347629 8.602490 3.520221
v 8.317614 8.487162 3.877797
v 8.426949 7.917466 5.136243
v 3.879415 7.797660 5.286161
v 4.396690 7.825386 5.418523
v 7.914043 8.715719 1.935440
v 6.594007 9.088163 1.407566
v 4.889307 8.104552 5.175358
v 5.423578 8.165893 5.024889
v 5.743449 8.208797 4.520585
v 5.802526 8.450234 4.247466
v 6.028669 8.559771 4.029487
v 6.192716 8.500075 3.801534
v 7.260062 8.705551 2.957379
v 5.844557 9.000151 2.140769
v 5.121566 8.916663 2.816643
v 4.954329 8.782957 3.176296
v 4.507421 8.740316 3.395394
v 4.194698 8.544977 3.720538
v 3.991224 8.393239 4.176541
v 3.876192 8.295111 4.485233
v 4.094357 7.790194 5.420000
v 7.723271 8.922567 1.140372
v 4.427996 8.191891 4.861117
v 4.798780 8.473755 4.638070
v 4.956857 8.630268 4.277826
v 5.234759 8.695873 3.847012
v 5.503376 8.699592 3.622707
v 5.795701 8.832891 3.424689
v 6.688936 9.158367 2.476274
v 8.092065 8.835591 1.200475
v 8.417521 8.916956 0.784157
v 6.741635 7.935657 -3.865835
v 5.637326 8.190508 -2.900731
v 8.348854 9.117499 0.225518
v 8.425861 9.067614 -0.324427
v 8.107190 8.927363 -0.825116
v 7.844857 9.048058 -0.999951
v 7.731230 9.008958 -1.298395
v 7.620462 8.810115 -1.537988
v 7.362586 8.204268 -2.849890
v 5.948535 8.516345 -1.920300
v 6.215476 8.957421 -0.988475
v 6.481056 9.045685 -0.684446
v 6.489717 9.141913 -0.187421
v 6.684598 9.105958 0.238051
v 7.033119 9.120553 0.617186
v 7.278386 9.123280 0.853187
v 8.301147 8.866714 1.060885
v 5.922106 7.933519 -4.028561
v 7.861428 9.133161 0.511321
v 7.761941 9.322856 0.072080
v 7.479200 9.346464 -0.226115
v 7.204722 9.223049 -0.658792
v 7.125972 9.078826 -0.994460
v 7.057912 9.028516 -1.344697
v 6.595266 8.586383 -2.548645
v 7.670294 8.797120 0.921508
v 7.795024 8.838219 1.438782
v 12.393476 7.314101 3.055439
v 12.372394 7.617975 1.598357
v 8.295038 8.996667 1.744781
v 8.675144 8.916581 2.152262
v 9.253627 8.706489 2.218026
v 9.570524 8.792003 2.129372
v 9.875370 8.711853 2.230094
v 10.113224 8.471567 2.290345
v 11.247351 7.712084 2.905347
v 11.448814 8.042347 1.230300
v 10.591637 8.602062 0.858805
v 10.189387 8.736999 0.873219
v 9.804008 8.904626 0.567787
v 9.340767 8.931818 0.447468
v 8.824011 9.010565 0.477696
v 8.484381 9.034238 0.518456
v 7.649679 8.822922 1.172663
v 13.033854 7.258580 2.521637
v 8.381253 9.039009 1.186387
v 8.807587 9.191509 1.392964
v 9.222709 9.160978 1.363419
v 9.724294 8.962719 1.421591
v 10.024125 8.771158 1.569495
v 10.340751 8.680407 1.738358
v 11.538066 8.084842 2.131405
v 7.998432 8.717984 0.911628
v 7.659163 8.755568 0.499549
v 2.761485 7.847101 1.205243
v 3.476063 8.258558 2.444581
v 7.098979 8.953658 0.419882
v 6.577215 8.858977 0.225561
v 6.021013 8.690927 0.439783
v 5.795724 8.811174 0.638222
v 5.480233 8.769542 0.682609
v 5.222519 8.571912 0.759297
v 3.884951 8.038499 0.782180
v 4.500315 8.514499 2.314232
v 5.467831 8.918360 2.215474
v 5.820467 8.980444 2.021976
v 6.308456 9.106982 2.113177
v 6.764927 9.080297 2.027159
v 7.208203 9.107497 1.773926
v 7.490025 9.100973 1.588988
v 7.905495 8.721586 0.675983
v 2.431705 7.941583 1.967102
v 7.277038 9.055501 0.952223
v 6.827199 9.198729 0.928453
v 6.476822 9.207923 1.132235
v 5.996404 9.069161 1.313884
v 5.651541 8.915649 1.330261
v 5.294889 8.865329 1.319081
v 4.020613 8.509808 1.542766
v 7.809365 8.747068 1.162644
v 8.333461 8.805965 1.250492
v 11.632771 7.316267 -2.348445
v 10.280020 7.603376 -2.899358
v 8.808434 8.974146 0.910419
v 9.332265 8.899799 0.720236
v 9.620998 8.681751 0.213581
v 9.661865 8.762440 -0.112602
v 9.873940 8.682693 -0.353659
v 10.024799 8.444101 -0.549092
v 11.041080 7.701018 -1.352275
v 9.575101 7.998652 -2.193329
v 8.892975 8.517764 -1.549742
v 8.748313 8.647285 -1.173943
v 8.315409 8.813723 -0.938879
v 8.024181 8.852698 -0.559817
v 7.849617 8.944157 -0.072492
v 7.754112 8.978625 0.255975
v 8.032042 8.775610 1.279991
v 11.393099 7.258435 -3.146770
v 8.328359 8.990433 0.612425
v 8.682999 9.139935 0.301214
v 8.818011 9.101348 -0.092297
v 9.069152 8.902946 -0.531132
v 9.324080 8.717545 -0.749204
v 9.603438 8.633006 -0.974415
v 10.438166 8.063509 -1.922504
vn 0.3512 -0.0566 -0.9346
vn 0.9185 -0.0590 -0.3910
vn 0.9511 -0.0708 0.3008
vn 0.3770 -0.0529 0.9247
vn -0.3084 -0.0372 0.9505
vn -0.9237 -0.0597 0.3783
vn -0.0042 1.0000 0.0059
vn -0.9671 -0.0442 -0.2507
vn -0.3992 -0.0649 -0.9146
vn -0.0072 -0.9997 -0.0243
vn 0.3445 -0.0162 -0.9387
vn -0.3497 -0.0785 0.9336
vn 0.9210 -0.0591 -0.3850
vn 0.9416 -0.0312 -0.3353
vn 0.4219 -0.0457 0.9055
vn 0.9304 -0.0652 0.3607
vn 0.3588 -0.0458 0.9323
vn 0.3653 -0.0656 -0.9286
vn -0.4115 -0.1087 0.9049
vn 0.9275 -0.0724 0.3666
vn -0.9356 -0.1284 0.3288
vn 0.0014 1.0000 0.0086
vn -0.8947 -0.0957 -0.4363
vn 0.3659 -0.0727 -0.9278
vn 0.3827 -0.0000 0.9239
vn -0.4119 -0.0564 -0.9095
vn -0.0000 -1.0000 -0.0000
vn 0.9435 -0.0143 0.3311
vn -0.9300 -0.1045 0.3525
vn -0.0001 -1.0000 0.0004
vn -0.8873 -0.0911 -0.4521
vn 0.9388 -0.0397 -0.3423
vn -0.3827 -0.0000 0.9239
vn -0.3611 -0.0905 -0.9281
vn 0.0121 0.9999 0.0110
vn -0.9239 -0.0000 0.3827
vn 0.0083 0.9994 -0.0344
vn -0.9379 -0.0131 -0.3466
vn -0.4000 -0.0860 -0.9125
vn 0.0013 -0.9999 -0.0111
vn 0.2202 0.8950 0.3880
vn -0.0284 0.9550 -0.2954
vn 0.1103 0.9924 -0.0545
vn 0.2690 0.9558 0.1183
vn 0.2419 0.9326 0.2680
vn 0.1717 0.8575 0.4849
vn 0.1148 0.9335 0.3396
vn 0.2210 0.8712 0.4383
vn -0.3224 0.8449 0.4269
vn -0.1232 0.8393 0.5296
vn -0.0683 0.8879 0.4549
vn -0.2833 0.8874 0.3637
vn -0.2805 0.8488 0.4482
vn -0.2600 0.9656 -0.0101
vn -0.1576 0.9610 -0.2272
vn -0.2592 0.8649 0.4299
vn 0.0060 0.9978 -0.0661
vn -0.2130 0.8380 0.5024
vn -0.2385 0.8799 0.4109
vn -0.2551 0.9365 0.2407
vn -0.1648 0.9649 0.2043
vn 0.0123 0.9922 0.1237
vn -0.1508 0.9343 0.3230
vn -0.1250 0.9844 0.1235
vn 0.2324 0.8336 0.5011
vn 0.1762 0.9208 0.3479
vn 0.0841 0.9387 0.3344
vn 0.1999 0.8594 0.4705
vn 0.2932 0.8833 0.3658
vn -0.0730 0.8162 0.5732
vn -0.1628 0.8286 0.5357
vn 0.4133 0.8858 0.2111
vn -0.2892 0.9236 -0.2517
vn 0.1619 0.9245 0.3450
vn 0.0183 0.9659 0.2581
vn -0.1692 0.9707 0.1706
vn -0.2020 0.9793 0.0107
vn -0.2222 0.9427 -0.2489
vn -0.1318 0.9813 -0.1406
vn -0.2757 0.9179 -0.2854
vn 0.2338 0.8720 -0.4302
vn 0.0542 0.9138 -0.4025
vn 0.0387 0.9567 -0.2883
vn 0.2629 0.9354 -0.2365
vn 0.2382 0.9192 -0.3135
vn 0.2979 0.9461 0.1270
vn 0.2187 0.9311 0.2920
vn 0.1765 0.8901 -0.4201
vn 0.4686 0.8825 -0.0395
vn -0.2972 0.9521 -0.0717
vn -0.1380 0.9824 -0.1257
vn 0.1005 0.9724 -0.2104
vn 0.2481 0.9602 -0.1281
vn 0.4544 0.8906 0.0188
vn 0.2975 0.9547 0.0104
vn 0.4941 0.8693 -0.0141
vn 0.2795 0.8343 0.4752
vn 0.3885 0.8669 0.3123
vn 0.3206 0.9200 0.2255
vn 0.1402 0.9154 0.3773
vn 0.2000 0.8881 0.4139
vn -0.2313 0.9539 0.1913
vn -0.3031 0.9515 0.0529
vn 0.3074 0.8512 0.4254
vn -0.2807 0.9549 0.0966
vn 0.4078 0.8940 -0.1859
vn 0.1906 0.9806 -0.0461
vn 0.0404 0.9932 0.1093
vn -0.0941 0.9918 0.0859
vn -0.3216 0.9461 0.0386
vn -0.1658 0.9855 -0.0374
vn -0.3082 0.9472 0.0878
vn -0.3267 0.8393 -0.4346
vn -0.3852 0.8894 -0.2460
vn -0.2946 0.9339 -0.2024
vn -0.2343 0.8898 -0.3916
vn -0.3235 0.8705 -0.3709
vn 0.1297 0.9186 -0.3733
vn 0.3494 0.8895 -0.2944
vn -0.3551 0.8606 -0.3651
vn 0.1311 0.8885 -0.4397
vn -0.1912 0.9516 0.2406
vn -0.1734 0.9833 0.0548
vn -0.1610 0.9666 -0.1993
vn -0.0375 0.9528 -0.3014
vn 0.1662 0.8850 -0.4349
vn 0.0819 0.9557 -0.2826
vn 0.1467 0.8761 -0.4593
vn 0.5284 0.8456 -0.0753
vn 0.4131 0.8756 -0.2501
vn 0.3032 0.9257 -0.2262
vn 0.3727 0.9280 -0.0005
vn 0.4344 0.8992 -0.0519
vn 0.0603 0.9662 0.2505
vn -0.1123 0.9543 0.2768
vn 0.4971 0.8601 -0.1146
vt 1.000000 0.500000
vt 1.000000 1.000000
vt 0.875000 1.000000
vt 0.875000 0.500000
vt 0.750000 1.000000
vt 0.750000 0.500000
vt 0.625000 1.000000
vt 0.625000 0.500000
vt 0.500000 1.000000
vt 0.500000 0.500000
vt 0.375000 1.000000
vt 0.375000 0.500000
vt 0.250000 1.000000
vt 0.250000 0.500000
vt 0.419706 0.419706
vt 0.250000 0.490000
vt 0.080294 0.419706
vt 0.010000 0.250000
vt 0.080294 0.080294
vt 0.250000 0.010000
vt 0.419706 0.080294
vt 0.490000 0.250000
vt 0.125000 1.000000
vt 0.125000 0.500000
vt 0.000000 1.000000
vt 0.000000 0.500000
vt 0.750000 0.490000
vt 0.919706 0.419706
vt 0.990000 0.250000
vt 0.919706 0.080294
vt 0.750000 0.010000
vt 0.580294 0.080294
vt 0.510000 0.250000
vt 0.580294 0.419706
vt 0.873804 0.455339
vt 1.000000 0.455340
vt 0.873804 1.000000
vt 0.000000 0.455339
vt 0.123804 0.455339
vt 0.123804 1.000000
vt 0.248804 0.455340
vt 0.248804 1.000000
vt 0.373804 0.455339
vt 0.373804 1.000000
vt 0.498804 0.455340
vt 0.498804 1.000000
vt 0.623804 0.455340
vt 0.623804 1.000000
vt 0.748804 0.455339
vt 0.748804 1.000000
vt 0.748804 0.000000
vt 0.873804 0.000000
vt 0.623804 0.000000
vt 0.498804 0.000000
vt 0.373804 0.000000
vt 0.248804 0.000000
vt 0.123804 0.000000
vt 0.000000 0.000000
vt 1.000000 0.000000
s 0
usemtl Troncou
f 1/1/1 2/2/1 4/3/1 3/4/1
f 3/4/2 4/3/2 6/5/2 5/6/2
f 5/6/3 6/5/3 8/7/3 7/8/3
f 7/8/4 8/7/4 10/9/4 9/10/4
f 9/10/5 10/9/5 12/11/5 11/12/5
f 11/12/6 12/11/6 14/13/6 13/14/6
f 4/15/7 2/16/7 16/17/7 14/18/7 12/19/7 10/20/7 8/21/7 6/22/7
f 13/14/8 14/13/8 16/23/8 15/24/8
f 15/24/9 16/23/9 2/25/9 1/26/9
f 1/27/10 3/28/10 5/29/10 7/30/10 9/31/10 11/32/10 13/33/10 15/34/10
f 17/1/11 18/2/11 20/3/11 19/4/11
f 41/1/12 42/2/12 44/3/12 43/4/12
f 35/4/13 36/3/13 38/5/13 37/6/13
f 19/4/14 20/3/14 22/5/14 21/6/14
f 39/6/15 40/5/15 42/7/15 41/8/15
f 21/6/16 22/5/16 24/7/16 23/8/16
f 23/8/17 24/7/17 26/9/17 25/10/17
f 33/8/18 34/7/18 36/9/18 35/10/18
f 25/10/19 26/9/19 28/11/19 27/12/19
f 37/10/20 38/9/20 40/11/20 39/12/20
f 27/12/21 28/11/21 30/13/21 29/14/21
f 20/15/22 18/16/22 32/17/22 30/18/22 28/19/22 26/20/22 24/21/22 22/22/22
f 29/14/23 30/13/23 32/23/23 31/24/23
f 49/1/24 50/2/24 52/3/24 51/4/24
f 55/4/25 56/3/25 58/5/25 57/6/25
f 31/24/26 32/23/26 18/25/26 17/26/26
f 17/27/27 19/28/27 21/29/27 23/30/27 25/31/27 27/32/27 29/33/27 31/34/27
f 53/6/28 54/5/28 56/7/28 55/8/28
f 43/12/29 44/11/29 46/13/29 45/14/29
f 37/29/30 39/30/30 41/31/30 43/32/30 45/33/30 47/34/30 33/27/30 35/28/30
f 45/14/31 46/13/31 48/23/31 47/24/31
f 51/8/32 52/7/32 54/9/32 53/10/32
f 57/10/33 58/9/33 60/11/33 59/12/33
f 47/24/34 48/23/34 34/25/34 33/26/34
f 44/19/35 42/20/35 40/21/35 38/22/35 36/15/35 34/16/35 48/17/35 46/18/35
f 59/12/36 60/11/36 62/13/36 61/14/36
f 54/22/37 52/15/37 50/16/37 64/17/37 62/18/37 60/19/37 58/20/37 56/21/37
f 61/14/38 62/13/38 64/23/38 63/24/38
f 63/24/39 64/23/39 50/25/39 49/26/39
f 55/30/40 57/31/40 59/32/40 61/33/40 63/34/40 49/27/40 51/28/40 53/29/40
usemtl Hojas
f 91/35/41 84/36/41 68/2/41 76/37/41
f 83/38/42 85/39/42 82/40/42 65/25/42
f 85/39/43 86/41/43 81/42/43 82/40/43
f 86/41/44 87/43/44 80/44/44 81/42/44
f 87/43/45 88/45/45 79/46/45 80/44/45
f 88/45/46 89/47/46 78/48/46 79/46/46
f 89/47/47 90/49/47 77/50/47 78/48/47
f 90/49/48 91/35/48 76/37/48 77/50/48
f 74/51/49 75/52/49 91/35/49 90/49/49
f 73/53/50 74/51/50 90/49/50 89/47/50
f 72/54/51 73/53/51 89/47/51 88/45/51
f 71/55/52 72/54/52 88/45/52 87/43/52
f 70/56/53 71/55/53 87/43/53 86/41/53
f 69/57/54 70/56/54 86/41/54 85/39/54
f 66/58/55 69/57/55 85/39/55 83/38/55
f 75/52/56 67/59/56 84/36/56 91/35/56
f 118/35/57 111/36/57 95/2/57 103/37/57
f 110/38/58 112/39/58 109/40/58 92/25/58
f 112/39/59 113/41/59 108/42/59 109/40/59
f 113/41/60 114/43/60 107/44/60 108/42/60
f 114/43/61 115/45/61 106/46/61 107/44/61
f 115/45/62 116/47/62 105/48/62 106/46/62
f 116/47/63 117/49/63 104/50/63 105/48/63
f 117/49/64 118/35/64 103/37/64 104/50/64
f 101/51/65 102/52/65 118/35/65 117/49/65
f 100/53/66 101/51/66 117/49/66 116/47/66
f 99/54/67 100/53/67 116/47/67 115/45/67
f 98/55/68 99/54/68 115/45/68 114/43/68
f 97/56/69 98/55/69 114/43/69 113/41/69
f 96/57/70 97/56/70 113/41/70 112/39/70
f 93/58/71 96/57/71 112/39/71 110/38/71
f 102/52/72 94/59/72 111/36/72 118/35/72
f 145/35/73 138/36/73 122/2/73 130/37/73
f 137/38/74 139/39/74 136/40/74 119/25/74
f 139/39/75 140/41/75 135/42/75 136/40/75
f 140/41/76 141/43/76 134/44/76 135/42/76
f 141/43/77 142/45/77 133/46/77 134/44/77
f 142/45/78 143/47/78 132/48/78 133/46/78
f 143/47/79 144/49/79 131/50/79 132/48/79
f 144/49/80 145/35/80 130/37/80 131/50/80
f 128/51/81 129/52/81 145/35/81 144/49/81
f 127/53/82 128/51/82 144/49/82 143/47/82
f 126/54/83 127/53/83 143/47/83 142/45/83
f 125/55/84 126/54/84 142/45/84 141/43/84
f 124/56/85 125/55/85 141/43/85 140/41/85
f 123/57/86 124/56/86 140/41/86 139/39/86
f 120/58/87 123/57/87 139/39/87 137/38/87
f 129/52/88 121/59/88 138/36/88 145/35/88
f 172/35/89 165/36/89 149/2/89 157/37/89
f 164/38/90 166/39/90 163/40/90 146/25/90
f 166/39/91 167/41/91 162/42/91 163/40/91
f 167/41/92 168/43/92 161/44/92 162/42/92
f 168/43/93 169/45/93 160/46/93 161/44/93
f 169/45/94 170/47/94 159/48/94 160/46/94
f 170/47/95 171/49/95 158/50/95 159/48/95
f 171/49/96 172/35/96 157/37/96 158/50/96
f 155/51/97 156/52/97 172/35/97 171/49/97
f 154/53/98 155/51/98 171/49/98 170/47/98
f 153/54/99 154/53/99 170/47/99 169/45/99
f 152/55/100 153/54/100 169/45/100 168/43/100
f 151/56/101 152/55/101 168/43/101 167/41/101
f 150/57/102 151/56/102 167/41/102 166/39/102
f 147/58/103 150/57/103 166/39/103 164/38/103
f 156/52/104 148/59/104 165/36/104 172/35/104
f 199/35/105 192/36/105 176/2/105 184/37/105
f 191/38/106 193/39/106 190/40/106 173/25/106
f 193/39/107 194/41/107 189/42/107 190/40/107
f 194/41/108 195/43/108 188/44/108 189/42/108
f 195/43/109 196/45/109 187/46/109 188/44/109
f 196/45/110 197/47/110 186/48/110 187/46/110
f 197/47/111 198/49/111 185/50/111 186/48/111
f 198/49/112 199/35/112 184/37/112 185/50/112
f 182/51/113 183/52/113 199/35/113 198/49/113
f 181/53/114 182/51/114 198/49/114 197/47/114
f 180/54/115 181/53/115 197/47/115 196/45/115
f 179/55/116 180/54/116 196/45/116 195/43/116
f 178/56/117 179/55/117 195/43/117 194/41/117
f 177/57/118 178/56/118 194/41/118 193/39/118
f 174/58/119 177/57/119 193/39/119 191/38/119
f 183/52/120 175/59/120 192/36/120 199/35/120
f 226/35/121 219/36/121 203/2/121 211/37/121
f 218/38/122 220/39/122 217/40/122 200/25/122
f 220/39/123 221/41/123 216/42/123 217/40/123
f 221/41/124 222/43/124 215/44/124 216/42/124
f 222/43/125 223/45/125 214/46/125 215/44/125
f 223/45/126 224/47/126 213/48/126 214/46/126
f 224/47/127 225/49/127 212/50/127 213/48/127
f 225/49/128 226/35/128 211/37/128 212/50/128
f 209/51/129 210/52/129 226/35/129 225/49/129
f 208/53/130 209/51/130 225/49/130 224/47/130
f 207/54/131 208/53/131 224/47/131 223/45/131
f 206/55/132 207/54/132 223/45/132 222/43/132
f 205/56/133 206/55/133 222/43/133 221/41/133
f 204/57/134 205/56/134 221/41/134 220/39/134
f 201/58/135 204/57/135 220/39/135 218/38/135
f 210/52/136 202/59/136 219/36/136 226/35/136
