{"accessors":[{"bufferView":0,"componentType":5126,"count":192,"max":[1.1556941270828247,5.430030822753906,1.16712486743927],"min":[-1.254503607749939,-1.0,-1.1745623350143433],"normalized":false,"type":"VEC3"},{"bufferView":1,"componentType":5126,"count":192,"max":[1.0,0.10664593428373337,0.9681359529495239,1.0],"min":[-0.9387885332107544,-0.07201565057039261,-0.9535413980484009,-1.0],"normalized":false,"type":"VEC4"},{"bufferView":2,"componentType":5126,"count":192,"max":[0.9495532512664795,0.9999839663505554,0.9501163959503174],"min":[-0.9664914608001709,-1.0,-0.9385952353477478],"normalized":false,"type":"VEC3"},{"bufferView":3,"componentType":5126,"count":192,"max":[1.0,0.9899900555610657],"min":[0.0,0.0],"normalized":false,"type":"VEC2"},{"bufferView":4,"componentType":5121,"count":336,"max":[191],"min":[0],"normalized":false,"type":"SCALAR"},{"bufferView":5,"componentType":5126,"count":384,"max":[4.809157848358154,5.827960014343262,5.906984329223633],"min":[-4.858566761016846,4.50739860534668,-5.387645721435547],"normalized":false,"type":"VEC3"},{"bufferView":6,"componentType":5126,"count":384,"max":[0.9911819696426392,0.4523981511592865,0.9683189392089844,1.0],"min":[-0.9977263808250427,-0.3433338403701782,-0.9992020130157471,1.0],"normalized":false,"type":"VEC4"},{"bufferView":7,"componentType":5126,"count":384,"max":[0.44490230083465576,0.9990646839141846,0.4266704320907593],"min":[-0.41804736852645874,0.8837804794311523,-0.3866879642009735],"normalized":false,"type":"VEC3"},{"bufferView":8,"componentType":5126,"count":384,"max":[1.0,1.0],"min":[0.0,0.0],"normalized":false,"type":"VEC2"},{"bufferView":9,"componentType":5123,"count":576,"max":[383],"min":[0],"normalized":false,"type":"SCALAR"}],"asset":{"generator":"Godot Engine v4.6.stable.official@89cea143987d564363e15d207438530651d943ac","version":"2.0"},"bufferViews":[{"buffer":0,"byteLength":2304,"byteStride":12,"target":34962},{"buffer":0,"byteLength":3072,"byteOffset":2304,"byteStride":16,"target":34962},{"buffer":0,"byteLength":2304,"byteOffset":5376,"byteStride":12,"target":34962},{"buffer":0,"byteLength":1536,"byteOffset":7680,"byteStride":8,"target":34962},{"buffer":0,"byteLength":336,"byteOffset":9216,"target":34963},{"buffer":0,"byteLength":4608,"byteOffset":9552,"byteStride":12,"target":34962},{"buffer":0,"byteLength":6144,"byteOffset":14160,"byteStride":16,"target":34962},{"buffer":0,"byteLength":4608,"byteOffset":20304,"byteStride":12,"target":34962},{"buffer":0,"byteLength":3072,"byteOffset":24912,"byteStride":8,"target":34962},{"buffer":0,"byteLength":1152,"byteOffset":27984,"target":34963}],"buffers":[{"byteLength":29136,"uri":"palmeiraCorregida0.bin"}],"extensions":{"OMI_physics_shape":{"shapes":[{"cylinder":{"height":7.0,"radius":4.0},"type":"cylinder"}]}},"extensionsUsed":["GODOT_single_root","OMI_physics_body","OMI_physics_shape"],"materials":[{"doubleSided":true,"name":"Troncou","pbrMetallicRoughness":{"baseColorFactor":[0.12053914368152618,0.03282661363482475,0.0022331741638481617,1.0],"metallicFactor":0.0,"roughnessFactor":0.5}},{"doubleSided":true,"name":"Hojas","pbrMetallicRoughness":{"baseColorFactor":[0.005669112782925367,0.28778788447380066,0.007696226239204407,1.0],"metallicFactor":0.0,"roughnessFactor":0.5}}],"meshes":[{"name":"Palmeira_Cylinder","primitives":[{"attributes":{"NORMAL":2,"POSITION":0,"TANGENT":1,"TEXCOORD_0":3},"indices":4,"material":0,"mode":4},{"attributes":{"NORMAL":7,"POSITION":5,"TANGENT":6,"TEXCOORD_0":8},"indices":9,"material":1,"mode":4}]}],"nodes":[{"children":[1],"name":"Palmeira2"},{"children":[2],"mesh":0,"name":"Palmeira","scale":[1.0,1.27769935131073,1.0],"translation":[0.0,1.2992208003997803,0.0]},{"children":[3],"extensions":{"OMI_physics_body":{"motion":{"type":"static"}}},"name":"StaticBody3D"},{"extensions":{"OMI_physics_body":{"collider":{"shape":0}}},"name":"CollisionShape3D","translation":[0.0,3.0,0.0]}],"scene":0,"scenes":[{"nodes":[0]}]}